# xmcd
#
# Track frame offsets:
#	150
#	10036
#	20428
#	32812
#	43949
#	52213
#	62895
#	73095
#	85428
#	97503
#	105418
#	117406
#	128847
#
# Disc length: 1843 seconds
# Revision: 1
# Processed by: cddbd v1.5.2PL0 Copyright (c) Steve Scherf et al.
# Submitted via: dBpowerAMP V12.0
#
DISCID=ad07310d
DTITLE=Johnny Cash - The Songs That Made Him Famous
DYEAR=1958
DGENRE=Country
TTITLE0=Ballad of a Teenage Queen
TTITLE1=There You Go
TTITLE2=I Walk the Line
TTITLE3=Don`t Make Me Go
TTITLE4=Guess Things Happend That Way
TTITLE5=Train of Love
TTITLE6=The Ways of a Women in Love
TTITLE7=Next in Line
TTITLE8=You`re the Nearest Thing to Heaven
TTITLE9=I Can`t Help It
TTITLE10=Home of the Blues
TTITLE11=Big River
TTITLE12=What Do I Care
EXTD=
EXTT0=
EXTT1=
EXTT2=
EXTT3=
EXTT4=
EXTT5=
EXTT6=
EXTT7=
EXTT8=
EXTT9=
EXTT10=
EXTT11=
EXTT12=
PLAYORDER=
